/vscmnt/brussel_pixiu_data/_data_brussel/112/vsc11236/PredSimResults/SUBJ11opt3D/expIG/worker_13.mot
version=1
nRows=7
nColumns=50
inDegrees=yes
endheader
                time	         pelvis_tilt	         pelvis_list	     pelvis_rotation	           pelvis_tx	           pelvis_ty	           pelvis_tz	       hip_flexion_r	     hip_adduction_r	      hip_rotation_r	        knee_angle_r	       ankle_angle_r	         mtp_angle_r	       hip_flexion_l	     hip_adduction_l	      hip_rotation_l	        knee_angle_l	       ankle_angle_l	         mtp_angle_l	    lumbar_extension	      lumbar_bending	     lumbar_rotation	 ercspn_r/activation	 intobl_r/activation	 extobl_r/activation	    abd_r/activation	    add_r/activation	hamstrings_r/activation	bifemsh_r/activation	glut_max_r/activation	iliopsoas_r/activation	rect_fem_r/activation	  vasti_r/activation	gastroc_r/activation	 soleus_r/activation	tib_ant_r/activation	 ercspn_l/activation	 intobl_l/activation	 extobl_l/activation	    abd_l/activation	    add_l/activation	hamstrings_l/activation	bifemsh_l/activation	glut_max_l/activation	iliopsoas_l/activation	rect_fem_l/activation	  vasti_l/activation	gastroc_l/activation	 soleus_l/activation	tib_ant_l/activation	
          0.00000000	         -8.66963120	         -4.66283643	          8.86864562	          0.00000000	          0.91898602	         -0.00590537	         39.01895761	          0.22104812	         -8.62220195	         -9.47794763	          4.42276277	          0.35657358	        -13.87467483	         -5.98424249	          1.78030642	        -12.80340999	          5.09672628	         41.86993261	        -10.79670548	          3.74816207	         -4.43417644	          0.09728270	          0.19090577	          0.01354558	          0.02025934	          0.45227108	          0.12176507	          0.30910654	          0.20401179	          0.13826034	          0.02320725	          0.01000069	          0.01578963	          0.01072048	          0.70615836	          0.04230239	          0.01000102	          0.01000486	          0.02142093	          0.18856218	          0.02491154	          0.30014362	          0.01837680	          0.69710105	          0.01000354	          0.01164250	          0.18716713	          0.25546808	          0.01427951	
          0.00985841	         -8.61349134	         -4.71883282	          8.96322173	          0.02213927	          0.91659695	         -0.00540575	         38.99606939	          0.35266594	         -8.79572171	        -11.57739344	          3.47870434	          0.30441147	        -14.15924740	         -6.21823437	          1.42848143	        -14.56425711	          3.62504367	         43.92025073	        -10.30237968	          3.99516121	         -4.64940026	          0.08355673	          0.26035970	          0.01163441	          0.09018769	          0.50533092	          0.10458315	          0.26548583	          0.33492527	          0.11874911	          0.01993426	          0.01000068	          0.01356170	          0.01164319	          0.82268980	          0.10869278	          0.01000218	          0.01000178	          0.01839804	          0.26988668	          0.02139636	          0.25783420	          0.01578352	          0.81722209	          0.01000168	          0.01000073	          0.16075421	          0.21941658	          0.01226444	
          0.01971681	         -8.53542154	         -4.75888233	          8.99699847	          0.04418542	          0.91445543	         -0.00484272	         38.85021523	          0.47653686	         -8.87898440	        -13.69139820	          2.87359548	          0.23541326	        -14.01568669	         -6.41888756	          1.06862230	        -17.11256517	          2.21558431	         45.55513365	         -9.84829843	          4.23229904	         -4.81472351	          0.09454333	          0.22361937	          0.01000072	          0.20876872	          0.49536414	          0.08982475	          0.22802085	          0.41658532	          0.10199130	          0.01712345	          0.01000081	          0.01164807	          0.01000040	          0.89300760	          0.12193821	          0.01000050	          0.01000771	          0.01580174	          0.23180398	          0.01837710	          0.22145386	          0.01355620	          0.87543952	          0.01000141	          0.01000023	          0.13806868	          0.18845261	          0.01053380	
          0.02957522	         -8.43687750	         -4.79799651	          8.96493806	          0.06579718	          0.91279742	         -0.00418455	         38.72426671	          0.62407430	         -8.95286884	        -15.79914937	          2.12076281	          0.19018657	        -13.34329750	         -6.61053607	          0.71820738	        -20.58030281	          0.92750059	         46.40024897	         -9.47628868	          4.48012646	         -4.91787656	          0.13204940	          0.19206312	          0.01000114	          0.23609689	          0.48893903	          0.07714907	          0.19584292	          0.43492903	          0.08759834	          0.01471015	          0.04517547	          0.01000466	          0.01000037	          0.93543863	          0.17096946	          0.01000071	          0.01000172	          0.01357183	          0.22698171	          0.01578392	          0.19020680	          0.01164322	          0.75189916	          0.01000127	          0.01000017	          0.11858452	          0.16185825	          0.01000029	
          0.03943363	         -8.31837137	         -4.84543380	          8.87649108	          0.08688382	          0.91171895	         -0.00346479	         38.66363631	          0.79574428	         -9.00594715	        -18.01346803	          1.50068387	          0.10516625	        -12.15770735	         -6.81170838	          0.40374648	        -24.86179631	         -0.45944504	         46.50814290	         -9.18951362	          4.75289523	         -4.96074210	          0.11341655	          0.16495993	          0.01000072	          0.27243780	          0.43059759	          0.06626267	          0.16820595	          0.42845455	          0.07523652	          0.01263916	          0.20312158	          0.01000103	          0.01000038	          0.96104216	          0.25461774	          0.01000054	          0.01000141	          0.01165661	          0.24814953	          0.01355670	          0.16443255	          0.01000028	          0.64579157	          0.01000109	          0.01000009	          0.10184997	          0.13901687	          0.01000041	
          0.04929203	         -8.18741763	         -4.89644947	          8.73294969	          0.10741111	          0.91137110	         -0.00271441	         38.54559245	          1.00880738	         -9.00371436	        -20.16699506	          1.31615570	          0.01082080	        -10.50966712	         -7.01830905	          0.13408853	        -29.75810092	         -2.17146034	         45.86081976	         -8.98152602	          5.04384016	         -4.94389892	          0.09741168	          0.14168135	          0.01000078	          0.30945887	          0.36983367	          0.05691431	          0.14446916	          0.36799533	          0.06461919	          0.01086359	          0.30761864	          0.01000100	          0.01000030	          0.97648942	          0.24562445	          0.01000058	          0.01000223	          0.01001169	          0.24730844	          0.01164390	          0.17783317	          0.01000015	          0.55465773	          0.01000081	          0.01000007	          0.08747699	          0.11939886	          0.01000026	
          0.05915044	         -8.05457207	         -4.94316292	          8.53595063	          0.12731163	          0.91187805	         -0.00197515	         38.26714443	          1.27872142	         -8.90049255	        -22.08903459	          1.71704585	         -0.06712331	         -8.45329788	         -7.21710692	         -0.07567394	        -35.05341182	         -4.33167515	         44.34650335	         -8.85105131	          5.34571214	         -4.86877445	          0.08366523	          0.12168769	          0.01000084	          0.34661210	          0.31764370	          0.05083103	          0.12408213	          0.31606447	          0.05550018	          0.01001731	          0.44472872	          0.01000109	          0.01000032	          0.83868843	          0.26403295	          0.01000052	          0.03379111	          0.01000014	          0.26868748	          0.01000170	          0.15279535	          0.01000014	          0.47638466	          0.01000103	          0.01000006	          0.07513235	          0.10254933	          0.02200850	
